<svg xmlns="http://www.w3.org/2000/svg" viewBox="0 0 96 96" width="96" height="96">
  <defs>
    <linearGradient id="top" x1="0" y1="0" x2="1" y2="1"><stop offset="0" stop-color="#FBF7EE"/><stop offset="1" stop-color="#E9E1D0"/></linearGradient>
    <linearGradient id="edge" x1="0" y1="0" x2="1" y2="0"><stop offset="0" stop-color="#8A6214"/><stop offset=".55" stop-color="#D9B267"/><stop offset="1" stop-color="#9C7424"/></linearGradient>
    <linearGradient id="side" x1="0" y1="0" x2="0" y2="1"><stop offset="0" stop-color="#3B4152"/><stop offset="1" stop-color="#262A36"/></linearGradient>
    <radialGradient id="shadow" cx=".5" cy=".5" r=".5"><stop offset="0" stop-color="#000" stop-opacity=".28"/><stop offset="1" stop-color="#000" stop-opacity="0"/></radialGradient>
  </defs>
  <ellipse cx="48" cy="80" rx="34" ry="7" fill="url(#shadow)"/>
  <path d="M14 58 48 42l34 16-34 16z" fill="url(#side)"/>
  <path d="M14 58v5l34 16v-5z" fill="#1F222C"/><path d="M82 58v5L48 79v-5z" fill="#2E3342"/>
  <path d="M14 48 48 32l34 16-34 16z" fill="url(#top)" opacity=".9"/>
  <path d="M14 48v4l34 16v-4z" fill="url(#edge)"/><path d="M82 48v4L48 68v-4z" fill="#B8913F"/>
  <path d="M14 36 48 20l34 16-34 16z" fill="url(#top)"/>
  <path d="M14 36v4l34 16v-4z" fill="url(#edge)"/><path d="M82 36v4L48 56v-4z" fill="#B8913F"/>
  <g fill="#8A6214"><path d="M36 38.5 40 36.6v6l-4 1.9z" opacity=".55"/><path d="M44 34.7 48 32.8v10.4l-4 1.9z" opacity=".75"/><path d="M52 30.9 56 29v14.8l-4 1.9z"/></g>
  <path d="M14 36 48 20l34 16" fill="none" stroke="#fff" stroke-opacity=".8" stroke-width=".8"/>
</svg>
